<?xml version="1.0"?>
<svg xmlns="http://www.w3.org/2000/svg" xmlns:xlink="http://www.w3.org/1999/xlink" viewBox="0 0 512 512" width="512" height="512"><linearGradient id="a" gradientUnits="userSpaceOnUse" x1="256" x2="256" y1="18" y2="466"><stop offset="0" stop-color="#00efd1"/><stop offset="1" stop-color="#00acea"/></linearGradient><linearGradient id="b" x1="337" x2="337" xlink:href="#a" y1="18" y2="466"/><linearGradient id="c" x1="180" x2="180" xlink:href="#a" y1="18" y2="466"/><path d="m456.725 186h-109.725v-47.307a88.306 88.306 0 0 0 -88.547-88.205c-48.636 0-88.453 39.569-88.453 88.205v47.307h-114.725a10.02 10.02 0 0 0 -7.684 3.621 10.294 10.294 0 0 0 -2.152 8.341l39.1 212.9a62.312 62.312 0 0 0 61.088 51.138h220.746a62.31 62.31 0 0 0 61.085-51.136l39.1-212.891a10.184 10.184 0 0 0 -2.152-8.291 10.079 10.079 0 0 0 -7.681-3.682zm-266.725-47.307c0-37.609 30.8-68.205 68.406-68.205a68.478 68.478 0 0 1 68.594 68.205v47.307h-137zm217.787 268.536a42.334 42.334 0 0 1 -41.414 34.771h-220.746a42.336 42.336 0 0 1 -41.415-34.773l-36.932-201.227h377.44z" fill="url(#a)"/><path d="m337 310.316a10 10 0 0 0 10-10v-31.282a10 10 0 0 0 -20 0v31.282a10 10 0 0 0 10 10z" fill="url(#b)"/><path d="m180 310.316a10 10 0 0 0 10-10v-31.282a10 10 0 0 0 -20 0v31.282a10 10 0 0 0 10 10z" fill="url(#c)"/></svg>
