<?xml version="1.0" encoding="utf-8"?>
<!-- Generator: Adobe Illustrator 19.0.0, SVG Export Plug-In . SVG Version: 6.00 Build 0)  -->
<svg xmlns="http://www.w3.org/2000/svg" xmlns:xlink="http://www.w3.org/1999/xlink" version="1.1" id="Layer_1" x="0px" y="0px" viewBox="0 2 98 98" style="enable-background:new 0 2 98 98;" xml:space="preserve" width="512" height="512">
<style type="text/css">
	.st0{fill:url(#SVGID_1_);}
</style>
<linearGradient id="SVGID_1_" gradientUnits="userSpaceOnUse" x1="49" y1="14.0999" x2="49" y2="87.9001">
	<stop offset="0" style="stop-color:#00EFD1"/>
	<stop offset="1" style="stop-color:#00ACEA"/>
</linearGradient>
<path class="st0" d="M85,82.8L69.6,67.3c4.7-5.6,7.5-12.9,7.5-20.7c0-17.9-14.6-32.5-32.5-32.5S12.1,28.7,12.1,46.6  s14.6,32.5,32.5,32.5c7.9,0,15.1-2.8,20.7-7.5L80.8,87c0.6,0.6,1.4,0.9,2.1,0.9s1.5-0.3,2.1-0.9C86.2,85.9,86.2,83.9,85,82.8z   M18.1,46.6C18.1,32,30,20.1,44.6,20.1c14.6,0,26.5,11.9,26.5,26.5c0,14.6-11.9,26.5-26.5,26.5C30,73.1,18.1,61.2,18.1,46.6z"/>
</svg>
